<svg width="151" height="50" viewBox="0 0 232 40" fill="none" xmlns="http://www.w3.org/2000/svg">
<path d="M8.4553 0H0V39.3836H8.4553V0Z" fill="black"/>
<path d="M39.2763 23.7486V39.3837H31.2213V25.0803C31.2213 21.2578 29.1199 19.063 25.7929 19.063C23.5665 19.063 21.3401 20.2961 20.1893 22.2196V39.3837H12.1593V11.7634H20.2144V15.0186C21.7653 12.6512 24.7172 11.1962 27.8692 11.1962C34.9486 11.1962 39.2763 15.9804 39.2763 23.7486Z" fill="black"/>
<path d="M42.1769 36.4737L44.5784 30.9496C47.2051 32.8732 50.6322 33.8843 54.0594 33.8843C56.561 33.8843 58.162 32.9225 58.162 31.6401C58.1119 27.4231 43.0275 30.5797 42.9274 20.3947C42.8774 15.2159 47.5553 11.2208 54.1845 11.2208C58.1119 11.2208 62.0644 12.1826 64.8662 14.3774L62.5897 20.1234C60.4134 18.4958 56.8862 17.2628 53.8593 17.2628C51.808 17.2628 50.4321 18.2245 50.4321 19.4576C50.4821 23.4527 65.6667 21.2578 65.8418 31.1716C65.8418 36.301 61.2639 40.0002 54.7598 40.0002C49.9568 39.9509 45.5541 38.8165 42.1769 36.4737Z" fill="black"/>
<path d="M86.5694 39.0631C85.5438 39.581 83.9428 39.8523 82.4668 39.8523C75.9127 39.8523 71.2848 35.7339 71.2848 28.6068V19.3097H66.0816V11.7634H71.2848V4.51306H79.3148V11.7634H86.2192V19.3097H79.3148V28.2123C79.3148 30.8017 81.3161 32.4293 83.6426 32.4293C84.4431 32.4293 85.5187 32.2567 86.1441 32.0347L86.5694 39.0631Z" fill="black"/>
<path d="M118.088 11.7634V39.3837H110.033V36.1284C108.657 38.3726 105.305 39.9509 101.753 39.9509C94.4485 39.9509 88.6698 33.539 88.6698 25.5489C88.6698 17.5587 94.4235 11.1962 101.753 11.1962C105.23 11.1962 108.657 12.7745 110.033 15.0186V11.7634H118.088ZM110.033 28.9767V22.2196C108.832 20.1974 106.331 18.6684 103.529 18.6684C99.6017 18.6684 96.5748 21.6031 96.5748 25.5242C96.5748 29.4699 99.6017 32.3799 103.529 32.3799C106.331 32.4046 108.832 30.9496 110.033 28.9767Z" fill="black"/>
<path d="M141.388 11.7138L140.938 19.1368C139.862 18.7422 138.487 18.5202 137.336 18.5202C135.51 18.5202 132.608 19.9752 131.232 22.6879V39.4081H123.177V11.7878H131.232V15.043C132.608 12.6756 135.635 11.2206 137.961 11.2206C139.387 11.1959 140.538 11.3685 141.388 11.7138Z" fill="black"/>
<path d="M169.656 27.4724H149.493C150.244 31.2456 152.871 33.2184 156.698 33.2184C159.2 33.2184 161.826 32.084 162.802 30.4071L169.081 34.1802C167.029 37.83 162.352 39.9755 156.523 39.9755C148.293 39.9755 141.789 33.6623 141.789 25.4502C141.789 17.4107 148.193 11.2208 156.348 11.2208C163.927 11.2208 169.881 17.0162 169.881 24.3898C169.881 25.3269 169.831 26.3873 169.656 27.4724ZM161.826 22.3923C161.476 19.6302 158.924 17.608 155.947 17.608C152.57 17.608 150.344 19.4083 149.619 22.3923H161.826Z" fill="black"/>
<path d="M216.012 22.2196V39.3837H207.907V23.8472C207.907 20.518 206.03 18.4958 203.053 18.4958C201.052 18.4958 199.001 19.7289 198.025 21.4305V39.3837H189.97V23.8472C189.97 20.518 187.969 18.4958 185.292 18.4958C182.941 18.4958 181.015 19.7782 180.164 21.6031V39.3837H172.109V11.7634H180.164V14.92C181.465 13.1197 184.167 11.1962 188.144 11.1962C191.671 11.1962 194.248 12.3306 195.974 15.0679C197.675 13.0951 200.827 11.1962 204.529 11.1962C211.209 11.1962 216.012 15.5858 216.012 22.2196Z" fill="black"/>
<path d="M220.564 34.8954C220.564 32.0841 222.84 29.8893 225.767 29.8893C228.744 29.8893 231.02 32.0841 231.02 34.8954C231.02 37.7068 228.744 39.9509 225.767 39.9509C222.84 39.9509 220.564 37.7068 220.564 34.8954Z" fill="black"/>
</svg>
